<?xml version="1.0" encoding="utf-8"?>
<!-- Generator: Adobe Illustrator 18.1.1, SVG Export Plug-In . SVG Version: 6.00 Build 0)  -->
<svg version="1.1" id="Camada_1" xmlns="http://www.w3.org/2000/svg" xmlns:xlink="http://www.w3.org/1999/xlink" x="0px" y="0px"
	 viewBox="0 0 295.5 286.5" enable-background="new 0 0 295.5 286.5" xml:space="preserve">
<g>
	<ellipse fill="#099A90" cx="137.8" cy="272.3" rx="62.9" ry="8.5"/>
	<g>
		<g>
			<defs>
				<path id="XMLID_8_" d="M112.6,198.6c0,0-0.4,18.4,0,30c0.4,11.6,2.7,37.2,2.7,37.2s-5.6-0.5-9.5,1c-3.9,1.5-7,4.4-2.3,6.3
					c4.7,1.9,16.1,0,16.1,0s-0.9-31.9-0.5-40.6c0.5-8.7,3.5-41.1,3.5-41.1L112.6,198.6z"/>
			</defs>
			<use xlink:href="#XMLID_8_"  overflow="visible" fill="#813C43"/>
			<clipPath id="XMLID_10_">
				<use xlink:href="#XMLID_8_"  overflow="visible"/>
			</clipPath>
			<path clip-path="url(#XMLID_10_)" fill="#401E21" d="M131.6,199.3c-2.4-0.8-4.9-0.6-7.3-0.3c0.4-0.3,0.8-0.7,1.1-1.1
				c1.2-1.5,1.1-3.7,0-5.2c-0.5-1.2-1.9-2-3-2.3c-1.3-0.4-2.6-0.3-3.7,0.2c-0.7,0.1-1.4,0.3-2,0.6c-2,0.8-4.1,3.2-3.4,5.4
				c-0.4,0.1-0.7,0.3-1.1,0.6c-0.3,0.2-0.5,0.4-0.6,0.7c-0.9-0.3-1.7-0.8-2.5-1.3c-0.5-0.4-1.4,0.1-1.2,0.8c1.4,4.9,5.2,7.4,9.9,9.1
				c2.4,0.9,5.2,1.1,7.8,1.1c3.3,0,5.5-0.7,7.7-3.2C134.7,202.6,133.4,200,131.6,199.3z"/>
			<path clip-path="url(#XMLID_10_)" fill="#401E21" d="M128,266.6c-2.1-0.3-4,0.7-5.9,1.5c-2.4,1-4.7,1.9-7.2,2.6
				c-4.2,1.1-8.9,0.8-13,2.3c-0.1,0.1-0.2,0.3-0.1,0.4c-0.2,0.1-0.3,0.4-0.1,0.6c-0.3,0.2-0.3,0.6-0.1,0.8c2.7,3.5,8.7,3.1,12.6,2.5
				c0.7-0.1,1.6-0.2,2.6-0.4c3.8-0.4,7.8-1.5,10.1-4.4c0.4-0.5,0.5-0.9,0.5-1.3c0.8-0.6,1.4-1.3,1.9-2.2
				C129.8,268,129.3,266.8,128,266.6z"/>
		</g>
		<g>
			<defs>
				<path id="XMLID_7_" d="M160.5,198.6c0,0,0.4,18.4,0,30c-0.4,11.6-2.7,37.2-2.7,37.2s5.6-0.5,9.5,1c3.9,1.5,7,4.4,2.3,6.3
					c-4.7,1.9-16.1,0-16.1,0s0.9-31.9,0.5-40.6c-0.5-8.7-3.5-41.1-3.5-41.1L160.5,198.6z"/>
			</defs>
			<use xlink:href="#XMLID_7_"  overflow="visible" fill="#813C43"/>
			<clipPath id="XMLID_11_">
				<use xlink:href="#XMLID_7_"  overflow="visible"/>
			</clipPath>
			<path clip-path="url(#XMLID_11_)" fill="#401E21" d="M169.3,193.7c-2-0.5-3.8-0.8-5.8-0.4c-0.5,0.1-1.1,0.2-1.6,0.4
				c0.8-0.6,1.5-1.3,2.1-2.2c2.2-3-0.1-7.9-3.9-7.9c-2.3,0-4.6,0.4-5.9,2.5c-0.2,0.3-0.3,0.5-0.4,0.8c-0.3,0.2-0.6,0.4-0.7,0.5
				c-0.2,0.2-2,1.3-1.8,1.2c-2.1,1.5-3.9,3-4.7,5.6c-0.2,0.6-0.2,1.1-0.2,1.6c-2.2,0.8-3.1,4-1.5,5.9c3.3,3.7,8.2,4.3,12.9,4
				c5.2-0.3,10.3-1.7,13.4-6.2C172.6,197.6,171.7,194.2,169.3,193.7z"/>
			<path clip-path="url(#XMLID_11_)" fill="#401E21" d="M178.5,268.1c-2.3-0.3-4.2,0.5-6.3,1.1c-2.4,0.7-4.9,1.2-7.4,1.5
				c-2.5,0.3-5.2,0.2-7.7-0.2c-2.1-0.4-3.9-0.4-5.8,0.7c-0.3,0.2-0.3,0.6-0.1,0.8c4.2,3.2,8.5,4.5,13.8,4.4c4.8-0.1,12-0.8,15-5.1
				C181,270,180,268.3,178.5,268.1z"/>
		</g>
	</g>
	<path fill="none" d="M194.7,181.9c0,0.1-0.1,0.3-0.1,0.4c0.3,0,0.6-0.1,1-0.2C195.2,182,194.9,182,194.7,181.9z"/>
	<path fill="#F39B8E" d="M192.9,194.3c-0.7-0.1-1.4-0.2-2.1-0.3c-3,2.6-6.6,4.6-10.2,5.9c1.3,2.1,2.5,4.3,3.2,6.7
		c3.3,10,3.8,16,3.8,16h11c0,0,0.4-12.6-2.4-24.3c-0.3-1.4-0.7-2.7-1.1-4.1C194.4,194.3,193.6,194.4,192.9,194.3z"/>
	<path fill="#F18D5B" d="M185.6,192.2c-1.1,0.5-2.2,0.8-3.5,1.1c-1.4,0.1-2.8,0.2-4.2,0.2c-2.8-0.2-5.4-1.1-7.8-2.7l-1.3-1.1
		c-0.9,3-2.6,5.8-5,7.9c-1.8,1.6-3.8,2.7-6,3.4c5.5,1.8,11.8,1.7,17.4,0.5c0.7-0.1,1.3-0.3,2-0.5c1.1-0.3,2.2-0.6,3.3-1.1
		c3.6-1.3,7.3-3.3,10.2-5.9C189,193.7,187.2,193,185.6,192.2z"/>
	<path fill="#D0715B" d="M216.8,167.1c-0.3,4.4-2.4,8.5-5.7,11.4c-2.3,2-5,3.3-8.1,3.9c-1.5,0.1-2.9,0.2-4.4,0.2
		c-1.1-0.1-2.2-0.3-3.2-0.6c-0.3,0.1-0.6,0.1-1,0.2c-0.9,2.8-2.5,5.3-4.7,7.2c-0.5,0.4-1,0.8-1.5,1.2c-0.9,0.6-1.8,1.1-2.7,1.5
		c1.6,0.9,3.4,1.5,5.2,1.9c0.7,0.1,1.4,0.3,2.1,0.3c0.7,0.1,1.5,0.1,2.2,0c0.2,0,0.4,0,0.7,0c5.8-0.5,11.7-3.9,15.7-7.7
		c4.6-4.4,8.6-10.1,10-16.4c0.7-3.2,1-6.8,0.7-10.2c-1.7,1.2-3.5,2.1-5.5,2.7C216.8,164.2,216.9,165.6,216.8,167.1z"/>
	<path fill="#FBC1AE" d="M234.6,122c0.4-4.6-1.2-9.2-4.3-12.7l-3.4-2.9c-2.2-1.4-4.5-2.3-7-2.7c0.7-1.7,1.1-3.4,1.2-5.2
		c0.7-9.1-6.7-19.1-16.4-19.1c-3.8,0-7.2,0.6-10.3,2.4c-0.7-3-2-5.7-4.1-8.1c-2.1-2.4-4.7-4.1-7.7-5.2c-1.5-0.3-3-0.6-4.6-0.9
		c-3.3-0.2-6.4,0.4-9.4,1.8c-0.1,0-0.2,0.1-0.2,0.1c-1.8,1.2-2.9,1.8-3.9,2.6c-0.4-0.6-0.9-1.3-1.3-1.9c-2-2.2-4.4-3.8-7.2-4.8
		c-1.4-0.7-3-0.9-4.6-0.9c-1.5,0.1-2.9,0.2-4.4,0.2c-3,0.6-5.7,1.9-8.1,3.9c-1.7,1.5-3.1,3.4-4.1,5.5c-2.3-3.8-6.2-6.6-10.8-6.6
		c-6.6,0-12.6,3.7-14.4,9.9c-2.4-1.5-5.1-2.4-7.9-2.6c-1.5,0.1-3,0.2-4.5,0.2c-3.1,0.6-5.8,1.9-8.2,4c-2.6,2.3-4.4,5.4-5.3,8.7
		c-2.6-1.8-5.6-2.9-8.7-3.1c-3.2-0.2-6.2,0.3-9,1.7c-2.8,1.4-5.1,3.4-6.9,6c-0.1,0.1-0.2,0.2-0.2,0.3c-1.7,2.5-2.6,5.3-2.9,8.4
		c-0.1,1.9,0,3.7,0.5,5.5c-2.4,0-4.8,0.6-7,1.7c-1.2,0.8-2.5,1.7-3.7,2.5c-2.2,2-3.8,4.3-4.8,7.1c-0.1,0.1-0.1,0.3-0.1,0.4
		c-0.3,1.4-0.6,2.8-0.9,4.2c-0.2,3,0.3,5.9,1.7,8.7c1.3,2.6,3.2,4.8,5.5,6.4c-3.2,2.6-5.4,6.4-5.7,11.1c-0.6,8.4,6.2,17.6,15.1,17.6
		c0.9,0,1.7-0.1,2.6-0.2c-0.1,0.5-0.1,0.9-0.2,1.4c-0.7,8.6,6.3,18,15.5,18c1.8,0,3.4-0.1,5-0.5c0.7,2.7,2,5.3,3.9,7.4
		c1.1,1,2.3,2,3.4,3c2.6,1.7,5.4,2.6,8.4,2.9c1.5-0.1,3-0.2,4.5-0.2c3.2-0.6,6-2,8.4-4.1c0.1-0.1,0.2-0.2,0.3-0.3
		c0.6,1.2,1.4,2.3,2.3,3.3l3.5,3.1c2.6,1.7,5.5,2.7,8.6,3c1.5-0.1,3.1-0.2,4.6-0.3c3.2-0.6,6.1-2,8.6-4.2c1.2-1,2.2-2.2,3-3.5
		c0.3,0.3,0.5,0.7,0.8,1c1.1,1,2.2,1.9,3.3,2.9c2.5,1.6,5.2,2.6,8.2,2.8c1.5-0.1,2.9-0.2,4.4-0.2c0.5-0.1,1.1-0.2,1.6-0.4
		c0.2,0,0.3-0.1,0.5-0.2c2.2-0.7,4.2-1.8,6-3.4c2.4-2.1,4.1-4.9,5-7.9l1.3,1.1c2.4,1.6,4.9,2.4,7.8,2.7c1.4-0.1,2.8-0.2,4.2-0.2
		c1.2-0.2,2.4-0.6,3.5-1.1c1-0.4,1.9-0.9,2.7-1.5c0.5-0.4,1-0.8,1.5-1.2c2.2-1.9,3.8-4.4,4.7-7.2c0-0.1,0.1-0.3,0.1-0.4
		c0.3,0.1,0.6,0.2,0.8,0.2c1,0.3,2.1,0.5,3.2,0.6c1.5-0.1,2.9-0.2,4.4-0.2c3-0.6,5.7-1.9,8.1-3.9c3.3-2.9,5.3-7,5.7-11.4
		c0.1-1.5,0-2.9-0.2-4.3c2-0.6,3.8-1.5,5.5-2.7c0.5-0.4,1-0.7,1.5-1.1c3.1-2.8,5.2-6.6,5.9-10.7c0.1-0.5,0.1-1,0.2-1.5
		c0.3-4.1-0.8-8.1-3.1-11.5c0.8-0.5,1.5-1,2.3-1.7C232.1,130.6,234.2,126.4,234.6,122z"/>
	<g>
		<g>
			<defs>
				<path id="XMLID_6_" d="M14.8,200.5c-3.3-3.9-9.6-1.6-8.6,1.3c0.3,0.9,1.4,0.9,1.4,0.9c-0.2,0.1-0.6,1.5-0.1,2.4
					c0.5,0.9,1.7,1.6,2.5,1.1c-0.2,0.4-0.3,0.8-0.2,1.2c0.4,2.6,3.9,2.2,5.5,0.1c0.7-1,1.1-2,1-3.1c2.4-0.5,14.4-3.2,28.2-8.3
					c16.1-6,22-28.4,22-28.4l-5.3,1.5c0,0-5.1,16.2-15,21.8c-4.5,2.6-29.1,8.9-31.4,9.5C14.9,200.6,14.9,200.5,14.8,200.5z"/>
			</defs>
			<use xlink:href="#XMLID_6_"  overflow="visible" fill="#813C43"/>
			<clipPath id="XMLID_12_">
				<use xlink:href="#XMLID_6_"  overflow="visible"/>
			</clipPath>
			<path clip-path="url(#XMLID_12_)" fill="#813C43" d="M59,172.6c3.2,0.6,6.5,0.8,9.6-0.4c1.4-0.6,0.5-2.6-0.8-2.4
				c-2.8,0.4-5.5,0.9-8.4,0.7C58.2,170.3,57.8,172.3,59,172.6z"/>
			<path clip-path="url(#XMLID_12_)" fill="#401E21" d="M56.5,173.1c3,3.7,10.7,5.7,13.1,0.2c0.6-1.4-1-2.9-2.3-2.5
				c-1.5,0.4-2.8,1.4-4.4,1.5c-1.6,0.1-3.3-0.4-4.7-1.1C56.8,170.5,55.5,171.9,56.5,173.1z"/>
		</g>
		<path fill="#F8A891" d="M58.1,156.9c-1.2,0.8-2.2,1.8-2.8,3.1c0,0.1-0.1,0.2-0.1,0.2c-0.6,1.3-0.9,2.6-0.9,4.1
			c0.1,1.4,0.5,2.8,1.2,4c1.9,3.1,5.8,4.5,9.3,3.5c2.8-0.9,4.9-3.2,5.6-6.1c0.7-3.5-1-7.4-4.3-9c-0.1,0-0.2-0.1-0.2-0.1
			c-1.9-0.9-3.9-1.1-5.9-0.5C59.4,156.3,58.8,156.6,58.1,156.9z"/>
	</g>
	<g>
		<g>
			<defs>
				<path id="XMLID_5_" d="M229.7,194.9c13.7,5.6,25.6,8.8,27.9,9.3c-0.1,1.1,0.2,2.2,0.9,3.2c1.5,2.2,5,2.7,5.6,0.1
					c0.1-0.5,0-0.9-0.1-1.3c0.8,0.5,2.1-0.1,2.6-1c0.5-0.9,0.2-2.3,0-2.4c0,0,1.1,0.1,1.4-0.8c1.2-2.9-5.1-5.5-8.6-1.6
					c0,0-0.1,0.1-0.1,0.1c-2.3-0.7-26.7-7.9-31.1-10.7c-9.6-6.1-13.9-22.7-13.9-22.7l-5.3-1.7C209,165.4,213.8,188.4,229.7,194.9z"
					/>
			</defs>
			<use xlink:href="#XMLID_5_"  overflow="visible" fill="#813C43"/>
			<clipPath id="XMLID_13_">
				<use xlink:href="#XMLID_5_"  overflow="visible"/>
			</clipPath>
			<path clip-path="url(#XMLID_13_)" fill="#401E21" d="M205.2,177.2c1.2,0.4,2.4,0.6,3.6,0.5c1.6,1.3,3.8,0.5,5.6,0
				c2.1-0.6,3.8-1.9,5.3-3.5c0.5-0.5,0.3-1.1-0.2-1.4c0.3-0.3,0.6-0.6,1-0.9c1.3-1.3-0.9-3.5-2.3-2.3c-0.2,0.2-0.5,0.4-0.7,0.6
				c-0.3-0.3-0.7-0.5-1.2-0.1c-1.1,0.9-2.4,1.4-3.9,1.7c-1.4,0.2-2.6-0.2-3.9-0.3c-1.1,0-1.9,0.8-2,1.7c-0.3,0-0.5,0.1-0.8,0.1
				C203.9,173.7,203,176.5,205.2,177.2z"/>
		</g>
		<path fill="#F8A891" d="M216.2,170.9c1.7-3.5,0.9-7.7-2.6-9.7c-3.2-1.8-8.1-0.9-9.7,2.6c-1.7,3.5-0.9,7.7,2.6,9.7
			C209.6,175.3,214.5,174.4,216.2,170.9z"/>
	</g>
	<path fill="#EDB92B" d="M262.9,188.2l3.6,0.7c1.9-15.5,2.5-36.5-0.4-58.1c-5.3-39.9-20.5-72-45.3-95.5
		c-18.4-17.4-44.7-28.3-72.2-30C126.6,4,93,8.1,59.1,35.1c-25.2,20.1-41.9,47-49.6,80.1c-6.6,28.3-5.1,54.9-1.6,75.4
		c0.2-0.1,0.4-0.3,0.7-0.3l3.9-0.9c-3.4-19.9-4.7-45.7,1.6-73.1c7.4-32,23.6-58.1,48-77.5C94.8,12.7,127.1,8.7,148.5,10
		c26.4,1.5,51.6,12,69.2,28.7c23.9,22.7,38.7,53.9,43.8,92.7c3.1,23.6,1.9,44.2,0.3,56.9C262.2,188.2,262.5,188.1,262.9,188.2z"/>
	<path fill="#F8CD7F" d="M13.6,211.7c-0.4,0.1-0.7,0.1-1,0l0.7,3.2c0.2,0.8,1,1.3,1.8,1.1l2.9-0.7c0.8-0.2,1.3-1,1.1-1.8l-0.7-3.2
		c-0.2,0.2-0.6,0.4-0.9,0.5L13.6,211.7z"/>
	<path fill="#F16265" d="M7.9,190.6c-0.6,0.5-1,1.3-0.8,2.1l4.1,17.5c0.2,0.7,0.7,1.2,1.4,1.4c0.3,0.1,0.7,0.1,1,0l3.9-0.9
		c0.4-0.1,0.7-0.3,0.9-0.5c0.5-0.5,0.7-1.2,0.6-1.9l-4.1-17.5c-0.3-1.1-1.3-1.7-2.4-1.5l0,0l-3.9,0.9C8.3,190.4,8.1,190.5,7.9,190.6
		z"/>
	<path fill="#F8CD7F" d="M262.8,210.5l-3.9-0.7c-0.4-0.1-0.7-0.2-0.9-0.5l-0.6,3.2c-0.2,0.8,0.4,1.6,1.2,1.7l2.9,0.5
		c0.8,0.2,1.6-0.4,1.7-1.2l0.6-3.2C263.5,210.6,263.2,210.6,262.8,210.5z"/>
	<path fill="#F16265" d="M266.8,188.9l-0.3-0.1l-3.6-0.7c-0.4-0.1-0.7,0-1,0.1c-0.6,0.2-1.1,0.8-1.3,1.5l-3.3,17.7
		c-0.1,0.7,0.1,1.4,0.7,1.9c0.3,0.2,0.6,0.4,0.9,0.5l3.9,0.7c0.4,0.1,0.7,0,1-0.1c0.6-0.2,1.2-0.8,1.3-1.5l3.3-17.7
		C268.6,190.2,267.9,189.1,266.8,188.9z"/>
	<g>
		<g>
			<g>
				<path fill="#B4D6DC" d="M244.4,115.9c0,0,7.8-12.9,17.3-7.8c7,3.8,0.5,10.3-6.4,8.3C247.1,113.9,244.4,115.9,244.4,115.9z"/>
				<path fill="#B4D6DC" d="M247.8,102.3c0,0,1.3-12.8,10.5-12.3c6.8,0.4,4.1,7.8-2,8.7C249.1,99.8,247.8,102.3,247.8,102.3z"/>
				<path fill="#B4D6DC" d="M275.1,105.1c0,0,4.9-7.3,10.3-4c4,2.4,0,6.1-4,4.6C276.7,104,275.1,105.1,275.1,105.1z"/>
			</g>
			<path fill="#B4D6DC" d="M250.4,112.3c0,0,4.7,2.2,8,2.2c4.9,0,6.4-5.1-0.9-5.3C252,108.9,250.4,112.3,250.4,112.3z"/>
			<path fill="#B4D6DC" d="M252.3,96c0,0,2.9,0.1,4.6-0.7c2.5-1.1,2.1-4-1.6-2.5C252.4,93.9,252.3,96,252.3,96z"/>
			<path fill="#B4D6DC" d="M280.5,102c0,0,1.4,0.7,2.4,0.7c1.5,0.1,2-1.5-0.2-1.6C281,101.1,280.5,102,280.5,102z"/>
		</g>
		<g>
			<path fill="#B4D6DC" d="M31.8,121.2c0,0-8.3-10.9-16.4-5.4c-6,4.1,0.6,9.4,6.6,6.9C29.2,119.6,31.8,121.2,31.8,121.2z"/>
			<path fill="#B4D6DC" d="M31.3,107.9c0,0-0.4-11.7-8.8-11.8c-6.2-0.1-4.2,6.8,1.2,8C30.3,105.5,31.3,107.9,31.3,107.9z"/>
			<path fill="#B4D6DC" d="M9.2,103.9c0,0-4.3-6.8-9.3-4c-3.7,2.1-0.1,5.5,3.5,4.3C7.8,102.9,9.2,103.9,9.2,103.9z"/>
			<path fill="#B4D6DC" d="M26.6,118.1c0,0-4.5,1.3-7.2,1.8c-4.1,0.8-6.1-3.2-0.1-4.6C23.8,114.3,26.6,118.1,26.6,118.1z"/>
			<path fill="#B4D6DC" d="M27.6,101.3c0,0-3.1-0.6-4.9-1.2C20,99.3,20,96.3,24,97.3C27.1,98.1,27.6,101.3,27.6,101.3z"/>
			<path fill="#B4D6DC" d="M6.1,101.8c0,0-2.3,0.6-3.8,0.8c-2.1,0.3-3.1-1.8,0-2.4C4.8,99.8,6.1,101.8,6.1,101.8z"/>
		</g>
	</g>
	<path fill="#F8A891" d="M140.3,68.1c-0.4,0.3-0.8,0.6-1.3,1c-1.7,1.5-3.1,3.4-4.1,5.5c-2.3-3.8-6.2-6.6-10.8-6.6
		c-6.6,0-12.6,3.7-14.4,9.9c-2.4-1.5-5.1-2.4-7.9-2.6c-1.5,0.1-3,0.2-4.5,0.2c-3.1,0.6-5.8,1.9-8.2,4c-2.6,2.3-4.4,5.4-5.3,8.7
		c-2.6-1.8-5.6-2.9-8.7-3.1c-3.2-0.2-6.2,0.3-9,1.7c-2.8,1.4-5.1,3.4-6.9,6c-0.1,0.1-0.2,0.2-0.2,0.3c-1.7,2.5-2.6,5.3-2.9,8.4
		c-0.1,1.9,0,3.7,0.5,5.5c-2.4,0-4.8,0.6-7,1.7c-1.2,0.8-2.5,1.7-3.7,2.5c-2.2,2-3.8,4.3-4.8,7.1c-0.1,0.1-0.1,0.3-0.1,0.4
		c-0.3,1.4-0.6,2.8-0.9,4.2c-0.2,3,0.3,5.9,1.7,8.7c1.3,2.6,3.2,4.8,5.5,6.4c-3.2,2.6-5.4,6.4-5.7,11.1c-0.6,8.4,6.2,17.6,15.1,17.6
		c0.9,0,1.7-0.1,2.6-0.2c-0.1,0.5-0.1,0.9-0.2,1.4c-0.7,8.6,6.3,18,15.5,18c1.8,0,3.4-0.1,5-0.5c0.7,2.7,2,5.3,3.9,7.4
		c1.1,1,2.3,2,3.4,3c2.6,1.7,5.4,2.6,8.4,2.9c1.5-0.1,3-0.2,4.5-0.2c3.2-0.6,6-2,8.4-4.1c0.1-0.1,0.2-0.2,0.3-0.3
		c0.6,1.2,1.4,2.3,2.3,3.3l3.5,3.1c2.6,1.7,5.5,2.7,8.6,3c1.5-0.1,3.1-0.2,4.6-0.3c3.2-0.6,6.1-2,8.6-4.2c1.2-1,2.2-2.2,3-3.5
		c0.3,0.3,0.5,0.7,0.8,1c0.1,0.1,0.3,0.3,0.4,0.4V68.1z"/>
	<g>
		<path fill="#FFFFFF" d="M122.5,160.4c-1.9,0-3.6,1.7-4.3,4c1.7,0.3,2.7,0.4,2.7,0.4l0.4,6.4c-0.6,0-1.3,0-2,0
			c0.8,1.1,1.9,1.7,3.2,1.7c2.5,0,4.6-2.8,4.6-6.3C127.1,163.2,125.1,160.4,122.5,160.4z"/>
		<path opacity="0.5" fill="#FFFFFF" d="M92.4,162.7c7,4.9,21.9,5.2,25.7,5.2c-0.1-0.4-0.1-0.8-0.1-1.3c0-0.8,0.1-1.6,0.3-2.3
			c-6.5-1.1-23-4.3-29-11.2c0,0-11,2.3-4.7,10.8c0,0-10.5,6-0.2,11.8c0,0-6.4,7.7,3.4,10.2c0,0,17.5-13.8,31.6-14.7
			c-0.6-0.8-1.1-1.9-1.3-3.1C102.8,170.6,92.4,162.7,92.4,162.7z"/>
		<path fill="#FFFFFF" d="M120.9,164.8c0,0-1-0.1-2.7-0.4c-0.2,0.7-0.3,1.5-0.3,2.3c0,0.4,0,0.9,0.1,1.3c0.6,0,0.9,0,0.9,0
			c-0.3,0.1-0.6,0.1-0.9,0.1c0.2,1.2,0.7,2.3,1.3,3.1c0.7,0,1.3-0.1,2,0L120.9,164.8z"/>
		<path opacity="0.5" fill="#FFFFFF" d="M120.9,164.8c0,0-1-0.1-2.7-0.4c-0.2,0.7-0.3,1.5-0.3,2.3c0,0.4,0,0.9,0.1,1.3
			c0.6,0,0.9,0,0.9,0c-0.3,0.1-0.6,0.1-0.9,0.1c0.2,1.2,0.7,2.3,1.3,3.1c0.7,0,1.3-0.1,2,0L120.9,164.8z"/>
		<path fill="#FFFFFF" d="M118.1,168.1c0.3,0,0.6-0.1,0.9-0.1c0,0-0.3,0-0.9,0c-3.8,0-18.6-0.3-25.7-5.2
			C92.4,162.7,102.8,170.6,118.1,168.1z"/>
	</g>
</g>
</svg>
