<?xml version="1.0" encoding="utf-8"?>
<!-- Generator: Adobe Illustrator 18.1.1, SVG Export Plug-In . SVG Version: 6.00 Build 0)  -->
<svg version="1.1" id="Camada_1" xmlns="http://www.w3.org/2000/svg" xmlns:xlink="http://www.w3.org/1999/xlink" x="0px" y="0px"
	 viewBox="0 0 250.3 339.9" enable-background="new 0 0 250.3 339.9" xml:space="preserve">
<g>
	<g>
		<path fill="#40110A" d="M120.7,146.7c-3.4,11.4-7.4,24.5-14.7,37.6c-7.4,13.1-29.7,29.9-30.5,47.9c-1.7,38.5,53.1,56.8,75.2,63.4
			c22.1,6.5,29.4,7.2,31.9,16.7c2.5,9.5,0.4,25.3,0.4,25.3s18.6-10.1,23.8-17.9c11.3-16.7-1.1-28-1.1-28s-4.6,3.9,0.8,12.8
			c5.4,8.8,5.4,16.7,3.4,19c-2,2.3-8.8,9.5-8.8,9.5s34.1-9.6,27.5-37.3c-1.1-4.7-4.2-1.3,0,0c9.5,2.8,7.7,18.4,7.7,18.4
			s23.1-29.9-23.7-46.7c-4.5-1.6-28.6-7.6-31.1-27.5c-1.4-11,6.7-12,8.2-25.5c1.9-17.4-23.1-13.8-32.8-30.2c-1.8-3.1,7.2-4.9,0-13.4
			c-8.7-10.3-12-9.4-24.5-15.5C120,149.2,120.7,146.7,120.7,146.7z"/>
		<g>
			<g>
				<path fill="#DCC5A1" d="M111.4,189.7v148.9H30.2c-1.3-0.6-2-0.8-2-0.8c0-22.1,3.8-38.7,9.3-50.9c9.1-20.1,22.9-28.8,31.7-32.4
					c5.1-2.2,8.7-2.6,8.7-2.6h0.4c0.3-0.1,0.7-0.1,1.1-0.2c4.1-1.2,6.9-7.1,8.8-15.8c0.3-1.5,0.6-3,0.9-4.7c0.4-2.7,0.8-5.6,1.1-8.7
					c0.2-1.8,0.3-3.6,0.5-5.4c0.8-9.2,1-19.1,1-28.5C91.7,188.6,102.6,189.7,111.4,189.7z"/>
				<path fill="#EDD9B4" d="M194.9,337.8c0,0-0.7,0.2-1.9,0.8h-81.6V189.7h0.2c8.8,0,19.8-1.1,19.8-1.1c0,9.4,0.2,19.2,1,28.3
					c0.2,1.8,0.3,3.6,0.5,5.4c0.3,3.1,0.7,6.1,1.1,8.8v0.1c0.2,1.2,0.4,2.4,0.6,3.5c1.7,8.3,4.2,14.5,7.9,16.5
					c0.3,0.1,0.5,0.3,0.8,0.3c0.6,0.2,1.2,0.3,1.8,0.3c0,0,25.1,3,39.6,33.4C190.8,297.7,194.9,314.6,194.9,337.8z"/>
			</g>
			<path opacity="0.7" fill="#BC9F82" d="M134,231.2L134,231.2c-2,3.2-8.9,12.3-22.5,12.3c0,0,0,0-0.1,0c-12.9,0-20.4-9.4-22.4-12.2
				c0.4-2.7,0.8-5.6,1.1-8.6c0.1-1.8,0.3-3.6,0.5-5.5c6.3,1.6,13.2,2.6,20.5,2.7h0.2c7.5-0.1,14.5-1.1,21-2.9
				c0.2,1.8,0.3,3.6,0.5,5.4C133.2,225.4,133.6,228.4,134,231.2z"/>
		</g>
		<g>
			<g>
				<g>
					<g>
						<path fill="#CCAE8B" d="M111.4,29.7c-84.8-0.1-85.3,67.7-81.5,112c-5.8-10.4-23-6.5-21.6,10.1c1.4,15.9,25.7,23.2,25.3,21.4
							c6.9,36.1,46.9,56.1,77.8,58.9c0.2,0,0.4,0,0.7,0c0-67.5,0-135,0-202.4C111.8,29.7,111.6,29.7,111.4,29.7z"/>
					</g>
					<path fill="#BC9F82" d="M12.5,144.8c4.3-6.4,10.8-3.7,12.4-2.2c1.7,1.5,3.1,3.6,2,7.4c-0.6,2.1-3,2.3-2.4,5.6
						c0.6,3.7,2.4,3.9,3.4,4.7c1,0.8,2.3,1.5,2.9,3c0.6,1.6,0.7,3.2,0.4,4.6c-0.7,2.6-4.7,0.5-7.4-0.6c-1.8-0.8-7.5-5.3-8.9-6.9
						C11.4,156.5,9.7,149.1,12.5,144.8z"/>
				</g>
				<g>
					<g>
						<path fill="#D9BF9F" d="M111.8,29.7c84.8-0.1,85.3,67.7,81.5,112c5.8-10.4,23-6.5,21.6,10.1c-1.4,15.9-25.7,23.2-25.3,21.4
							c-6.9,36.1-46.9,56.1-77.8,58.9c-0.2,0-0.4,0-0.6,0c0-67.5,0-135,0-202.4C111.3,29.7,111.6,29.7,111.8,29.7z"/>
					</g>
					<path fill="#BC9F82" d="M211.2,144.8c-4.3-6.4-10.8-3.7-12.4-2.2c-1.7,1.5-3.1,3.6-2,7.4c0.6,2.1,3,2.3,2.4,5.6
						c-0.6,3.7-2.4,3.9-3.4,4.7c-1,0.8-2.3,1.5-2.9,3c-0.6,1.6-0.7,3.2-0.4,4.6c0.6,2.6,4.7,0.5,7.4-0.6c1.8-0.8,7.5-5.3,8.9-6.9
						C212.4,156.5,214,149.1,211.2,144.8z"/>
				</g>
				<g>
					<path fill="#DCC5A1" d="M110.9,48.9c-28.3,0-49,7.8-61.6,23.1C31.8,93.5,32.5,126.3,39,149.8c2,7.2,3,26.6,4.3,33.7
						c6.1,31.8,43.2,48.7,67.6,48.7c0.2,0,0.4,0,0.7,0V49C111.3,49,111.1,48.9,110.9,48.9z"/>
					<path fill="#EDD9B4" d="M172.4,72.1c-12.4-15.3-32.9-23-60.8-23.1v183.2c27.9-0.3,61.2-18.8,66.9-48.7
						c1.4-7.1,2.4-26.5,4.3-33.7C189.3,126.3,189.9,93.6,172.4,72.1z"/>
				</g>
			</g>
			<g>
				<path fill="#4D1B15" d="M203.4,76.3c-1.1-3.5-2.3-6.7-3.4-9.9c0-0.5,0-0.9,0-1.3c0-13.2-10.8-30.3-28-46.9
					C154.8,1.5,144,4.9,129.8,5.4c0,0,0,0.1-0.1,0.3C123.4,4.2,89.8-2.9,69.8,5c-22.1,8.8-40.2,23.9-52.9,64.5
					c-12.8,40.6-2.3,73.8,0.2,88c7.8,44.9,45.4,73.4,45.4,73.4s-9.5-12-13.7-24c-3.3-9.3-8.2-25.2-8.2-48.7
					c0-23.5,21.5-52.6,21.5-52.6S52.1,124,50.2,144c-2,20,8.4,35.6,8.4,35.6s-13.1-26,7.9-45.5c6.7-6.2,12.3-12.6,16.8-18.5
					c0,0,0,0,0,0c-5.3,15.4,5.3,28.3,5.3,28.3s-0.2-19.7,10.8-26.4c26.7-16.3,30.9-23.1,34.7-36.2c0.5-1.8,0.8-3.4,1-5l24.4,38
					c1.1,1.7,3,4.5,5.2,8.1c6.3,10.5,15.1,27.8,15.1,42.8c0,23.5-4.9,39.4-8.2,48.7c-4.2,12-13.7,24-13.7,24s37.6-28.4,45.5-73.4
					C205.7,150.1,216.1,116.9,203.4,76.3z"/>
			</g>
		</g>
		<g>
			<path fill="#FDFBF8" d="M174.4,260.7c-10.9-5.2-23.9-8.5-23.2-7c7.1,9.9,4.4,18.3,3.3,32.5c-1.8,22.2-16.3,16.7-43.1,16.5
				c-26.9,0.3-41.3,5.7-43.1-16.5c-1.2-14.2-3.8-22.6,3.3-32.5c0.7-1.6-12.3,1.7-23.2,7C37.3,265.9,28.3,273,28.3,273
				s8.2,2.7,11.6,12.7c1.7,5,2.8,14.1,3.3,22.5c1.2,17,9.8,24.7,9.3,30.4h58.8h58.8c-0.5-5.7,8.1-13.4,9.3-30.4
				c0.6-8.4,1.6-17.5,3.3-22.5c3.4-10,11.6-12.7,11.6-12.7S185.3,265.9,174.4,260.7z"/>
			<g>
				<path fill="#AC4E9D" d="M99.5,253.6c1.3,19.2-7.2,41-9,47.3c-2.5,8.4-9.2,18-9.2,18s7.3,0.7,8.3,0.6c1.1,0,10.6,2.4,13-4.8
					c2.4-7.2,11.6-53.9,10.8-55.1c-0.8-1.2-3-6-3-6H99.5z"/>
				<path fill="#AC4E9D" d="M86.7,236.9c5.2,1.8,15.3,5.3,25.1,5c9.9-0.4,25.6-3.6,25.6-3.6s7.2,8.3,1.1,11.7
					c-6,3.4-43.9,8.5-56-0.6C80.7,247.9,86.7,236.9,86.7,236.9z"/>
				<path fill="#AC4E9D" d="M104.4,241.4c1-0.7,5.2,0,8.2,0c3,0,4.3-0.9,6.9,0c2.6,0.9,4.2,8.2,4.2,9.4c0,1.1,0,3.6-1.2,3.7
					c-1.2,0.1,0,7,0.2,10c3.3,52.1-4.4,65.2-6,66.1c-1.6,0.9-28.8,1.7-28.8,1.7s7.4-16.6,10.2-25.7c7.6-24.4,8.6-50.8,8.6-50.8
					s-3.2,1-3.2-1.8C103.6,251.1,101.8,243.2,104.4,241.4z"/>
			</g>
		</g>
	</g>
	<g>
		<path fill="#F04937" d="M128.6,201.9c0,0-7.9,8.4-17.6,8.4c-9.7,0-17.1-8.2-17.1-8.2s7.4-1.2,17.1-1.2
			C120.7,200.9,128.6,201.9,128.6,201.9"/>
		<path fill="#F04937" d="M116,198c-2.7,0-4.9,1.7-5,3.8c0-2.1-2.2-3.8-5-3.8c-2.7,0-12.6,3.9-12.6,3.9s9.6,1,12.4,1
			c2.7,0,5.2,1.1,5.2-1c0.1,2,2,1.3,4.8,1.3c2.7,0,12.8-1.3,12.8-1.3S118.7,198,116,198"/>
	</g>
</g>
</svg>
