<?xml version="1.0" encoding="utf-8"?>
<!-- Generator: Adobe Illustrator 18.1.1, SVG Export Plug-In . SVG Version: 6.00 Build 0)  -->
<svg version="1.1" id="Camada_1" xmlns="http://www.w3.org/2000/svg" xmlns:xlink="http://www.w3.org/1999/xlink" x="0px" y="0px"
	 viewBox="0 0 250.3 367.4" enable-background="new 0 0 250.3 367.4" xml:space="preserve">
<g>
	<g>
		<g>
			<path fill="#DCC5A1" d="M128.9,194.8v142.7H51c-1.2-0.5-1.9-0.8-1.9-0.8c0-53.1,22.9-72.1,36.9-78.8c6.2-2.9,10.7-3.5,10.7-3.5
				c4.8,0,7.9-6.1,9.9-15.4c0.3-1.4,0.6-2.9,0.8-4.5c0.4-2.6,0.8-5.4,1.1-8.3c0.2-1.7,0.3-3.5,0.5-5.3c0.7-8.8,0.9-18.3,0.9-27.3
				C109.9,193.7,120.4,194.8,128.9,194.8z"/>
			<path fill="#EDD9B4" d="M209,336.8c0,0-0.7,0.3-1.9,0.8h-78.2V194.8h0.2c8.5,0,19-1,19-1c0,9,0.2,18.4,0.9,27.1
				c0.2,1.7,0.3,3.5,0.5,5.2c0.3,3,0.6,5.8,1.1,8.5v0.1c0.2,1.2,0.3,2.3,0.6,3.4c2,9.8,5.2,16.5,10.1,16.5c0,0,5.7,0.7,13.3,4.8
				C188.7,267,209,286.7,209,336.8z"/>
		</g>
		<path opacity="0.7" fill="#BC9F82" d="M150.5,234.5L150.5,234.5c-1.9,3.1-8.5,11.8-21.6,11.8c-0.1,0-0.1,0-0.1,0
			c-12.4-0.1-19.6-9-21.5-11.7c0.4-2.6,0.8-5.4,1.1-8.3c0.2-1.7,0.3-3.5,0.5-5.3c6.1,1.5,12.6,2.5,19.7,2.6h0.2
			c7.2-0.1,13.9-1.1,20.1-2.8c0.2,1.7,0.3,3.5,0.5,5.2C149.8,229,150.1,231.8,150.5,234.5z"/>
	</g>
	<g>
		<g>
			<g>
				<g>
					<path fill="#CCAE8B" d="M128.5,31c-82.5,0-83,68.8-79.3,113.9c-5.7-10.7-22.4-7.4-21.1,9.4c1.3,16.2,25,24.6,24.7,22.7
						c6.8,37.1,45.6,58.5,75.7,58.5c0.2,0,0.4,0,0.6,0V31C128.9,31,128.7,31,128.5,31z"/>
				</g>
				<path fill="#BC9F82" d="M33.7,147.2c4.1-6.5,10.4-3.7,11.9-2.3c1.7,1.6,2.9,3.6,1.9,7.5c-0.6,2.2-2.9,2.3-2.3,5.6
					c0.6,3.7,2.3,3.9,3.3,4.8c1,0.8,2.2,1.5,2.8,3c0.6,1.6,0.7,3.2,0.4,4.6c-0.6,2.7-4.5,0.6-7.1-0.6c-1.7-0.8-7.2-5.4-8.5-6.9
					C32.6,159,31,151.5,33.7,147.2z"/>
			</g>
			<g>
				<g>
					<path fill="#D9BF9F" d="M129.8,31c82.5,0,83,68.8,79.3,113.9c5.7-10.7,22.4-7.4,21,9.4c-1.3,16.2-25,24.6-24.6,22.7
						c-6.8,37.1-45.6,58.5-75.7,58.5c-0.2,0-0.4,0-0.6,0V31C129.4,31,129.6,31,129.8,31z"/>
				</g>
				<path fill="#BC9F82" d="M224.9,147.2c-4.1-6.5-10.4-3.7-11.9-2.3c-1.7,1.6-2.9,3.6-1.9,7.5c0.6,2.2,2.9,2.3,2.3,5.6
					c-0.6,3.7-2.3,3.9-3.3,4.8c-1,0.8-2.2,1.5-2.8,3c-0.6,1.6-0.7,3.2-0.4,4.6c0.6,2.7,4.5,0.5,7.1-0.6c1.7-0.8,7.2-5.4,8.5-6.9
					C226,159,227.6,151.5,224.9,147.2z"/>
			</g>
			<g>
				<path fill="#DCC5A1" d="M128.6,50.4c-27.2,0-47,7.9-59.1,23.4c-16.8,21.6-16.2,54.7-10,78.5c1.9,7.3,2.9,26.8,4.2,34
					c5.9,32.1,41.4,49.2,64.8,49.2c0.2,0,0.4,0,0.6,0V50.4C129.1,50.4,128.9,50.4,128.6,50.4z"/>
				<path fill="#EDD9B4" d="M187.5,73.8c-11.9-15.4-31.6-23.3-58.3-23.4v185.1c26.8-0.3,58.7-19,64.2-49.2c1.3-7.2,2.3-26.8,4.2-34
					C203.7,128.6,204.3,95.5,187.5,73.8z"/>
			</g>
		</g>
		<g>
			<g>
				<path fill="#452C38" d="M168.8,214.1c-0.3-4.9-1.7-9.4-4-12.7c0,0-0.8-0.7-2.3-1.7c-1.5-1.1-3.8-2.6-6.6-4.2
					c-3-1.7-6.5-4.1-10.7-5.8h0c0,0,17.4,6.3-0.4-0.2c-17.8-6.5-32,0-32,0c-4.4,1.7-8,4.2-11.1,6c-2.9,1.6-5.1,3.2-6.6,4.2
					c-1.5,1-2.3,1.7-2.3,1.7c-2.3,3.3-3.7,7.8-3.9,12.7c0,0.5-0.1,1.1-0.1,1.7c0,5,1.2,9.5,3.3,13c0.5,1.4,1.6,2.7,3,4
					c1.4,1.3,2.9,2.3,4.6,2.9c5.8,2.8,14.3,4.7,23.9,5.2c1.7,0.3,3.5,0.5,5.3,0.5c1.9,0,3.7-0.2,5.4-0.5c9.6-0.5,18.1-2.4,23.9-5.2
					c1.7-0.6,3.2-1.5,4.6-2.9c1.5-1.2,2.5-2.6,3-4c2-3.5,3.3-8.1,3.3-13C168.9,215.2,168.8,214.6,168.8,214.1z M157.6,226.7
					c-3,1.4-6.7,2.5-10.9,3.4c0,0,0,0,0-0.1c0-6.2-8-11.2-17.9-11.2c-9.9,0-17.9,5-17.9,11.2c0,0,0,0,0,0.1c-4.2-0.9-7.9-2-10.9-3.4
					c-1.4-3.2-2.2-6.9-2.2-10.9c0.6-1.8,1.5-3.5,2.7-5.3c0.2-0.3,0.4-0.5,0.6-0.7c2.6-2,5.6-3.7,9-5c5.1-1.1,10.6-0.8,14.6-3.2
					c1.7-1,3.1-2.5,4.1-4.7c1,2.2,2.5,3.7,4.1,4.7c4,2.4,9.5,2.1,14.6,3.2c3.4,1.3,6.4,3,9,5c0.2,0.2,0.4,0.4,0.6,0.7
					c1.3,1.8,2.1,3.5,2.7,5.3C159.8,219.8,159,223.6,157.6,226.7z"/>
			</g>
		</g>
		<path fill="#452C38" d="M201.7,163.5c1.5,0-0.1-9.1,5.1-15.4c5.2-6.3,13.1-27.4,13.1-48.4c0-21.1-6.8-39.8-24.5-59.8
			c-17.7-19.9-43.7-29.6-43.7-29.6l12,11.9c0,0-6.4-9.7-29.6-17.5C115.8-1.3,104,5.5,104,5.5s12.1-0.4,15.7,5.3
			c0.9,1.5,4.3,3.7,4.3,3.7s-5.6-13.8-31.6-2.4S66.8,43.9,48.7,50.2c-18.5,6.4-23.9-1.8-23.9-1.8s8,14.4,22.3,14.5
			c2.7,0,2.5-0.1,2.5-0.1s-5.3,15.5-6.4,27c-1,11.8,2.2,19.8,3.2,41.9c0.9,18.8,5.6,9.2,11.2,23.1c1.9,4.7,2,9.9,2,9.9
			c2.1,0.6,7.5-11.3,3.6-31.9c-2.5-13.4,10-64.1,40.3-54.2c18.6,6,23.2,18.4,37.1,7.4c12-9.4,28.7-14.8,41.2-7.4
			c12.5,7.5,19.5,24.2,17.3,51C196.4,163.8,201.7,163.5,201.7,163.5z"/>
	</g>
	<path fill="#FEE12C" d="M209,338c0,0-0.7,0.3-1.9,0.8H51c-1.2-0.5-1.9-0.8-1.9-0.8c0-72,40.8-82.4,46.9-83.5
		c3.2,3.6,7.6,8.1,12.1,12.6c9.6,9.4,19.8,18.7,19.8,18.7s11.4-9.6,21.3-18.2c0-0.1,0.1-0.1,0.1-0.1c4-3.4,7.8-6.7,10.4-9.2
		c0.5-0.4,1-0.8,1.4-1.3c1-1,1.9-1.7,2.3-2.2c0,0,0,0,0.1,0c1.5,0.3,3.5,0.9,6.1,2c0.4,0.2,0.9,0.4,1.4,0.6c2.8,1.2,6.1,3.1,9.4,5.6
		c0.5,0.4,0.9,0.7,1.4,1.1C194.5,274.1,209,295.2,209,338z"/>
	<path fill="#F4F4F4" d="M170.4,303.7h-1V297c0-2.6-2.1-4.8-4.8-4.8h-20.2c-2.6,0-4.8,2.1-4.8,4.8v6.8H91c-5.6,0-10.2,4.5-10.2,10.2
		v40.8c0,5.6,4.5,10.2,10.2,10.2h79.4c5.6,0,10.2-4.5,10.2-10.2v-40.8C180.6,308.3,176,303.7,170.4,303.7"/>
	<rect x="80.9" y="316.4" fill="#474153" width="99.7" height="14.2"/>
	<path fill="#474153" d="M165.3,337.8c0,11.2-9.1,20.4-20.4,20.4c-11.2,0-20.4-9.1-20.4-20.4c0-11.2,9.1-20.4,20.4-20.4
		C156.2,317.5,165.3,326.6,165.3,337.8"/>
	<path fill="#474153" stroke="#FFFFFF" stroke-miterlimit="10" d="M161.7,337.8c0,9.3-7.5,16.8-16.8,16.8c-9.3,0-16.8-7.5-16.8-16.8
		c0-9.3,7.5-16.8,16.8-16.8C154.2,321.1,161.7,328.6,161.7,337.8"/>
	<path fill="#F4F4F4" d="M144.9,323.8c-7.7,0-14,6.3-14,14c0,0.3,0.3,0.6,0.6,0.6c0.3,0,0.6-0.3,0.6-0.6c0-7.1,5.7-12.8,12.8-12.8
		c0.3,0,0.6-0.3,0.6-0.6C145.5,324.1,145.3,323.8,144.9,323.8"/>
	<rect x="144.4" y="296.8" fill="#474153" width="20.4" height="3.8"/>
	<g>
		<g>
			<defs>
				<rect id="SVGID_7_" x="139.7" y="302.8" width="29.7" height="0.9"/>
			</defs>
			<clipPath id="SVGID_2_">
				<use xlink:href="#SVGID_7_"  overflow="visible"/>
			</clipPath>
			<rect x="139.7" y="302.8" clip-path="url(#SVGID_2_)" fill="#C0BEBF" width="29.7" height="0.9"/>
		</g>
	</g>
</g>
</svg>
