<?xml version="1.0" encoding="utf-8"?>
<!-- Generator: Adobe Illustrator 18.1.1, SVG Export Plug-In . SVG Version: 6.00 Build 0)  -->
<svg version="1.1" id="Camada_1" xmlns="http://www.w3.org/2000/svg" xmlns:xlink="http://www.w3.org/1999/xlink" x="0px" y="0px"
	 viewBox="0 0 250.3 339.9" enable-background="new 0 0 250.3 339.9" xml:space="preserve">
<g>
	<g>
		<g>
			<path fill="#13150E" d="M70.6,183.1c-1.5-1.1-28.4-17.6-28.4-17.6c1.8,10.3,3.2,14.5,0.5,21.5c-2.4,6.3-7.1,8.7-9.7,10.9
				c-2.6,2.2-7.8,3.9-9.7,3.9c-1.9,0-3.9-0.3-3.9-0.3s4.3,2.3,15,1.9c4.5-0.2,7.4-1.3,9.2-2.6c-2.1,3.4-4.1,8.3-1.9,12.8
				c8.1,16.5-2.7,21.9-2.7,21.9s9.6-1,15-5.8c0,0.1,0,0.3,0,0.4c2.4,8.2,8.9,9.2,8.9,9.2s-4-0.7-3.3-8.3c0.2-2,2.3-2.8,5-4.2
				c1,7.4,4.4,14.9-2.5,18c0,0,11.7-2.3,13.8-9.2c0.4-1.3,0.6-2.5,0.8-3.6c0.2,0.7,0.4,1.3,0.5,2c1.7,8.8-5,17.4-5,17.4
				s24.3-2.6,24.5-12.2c0-1.4,0.3-7.3,1.1-9.5c0.7-2.2,2.2-13.2,2.2-13.2S72.1,184.2,70.6,183.1z"/>
			<path fill="#13150E" d="M171.2,183.1c1.5-1.1,28.4-17.6,28.4-17.6c-1.8,10.3-3.2,14.5-0.5,21.5c2.4,6.3,7.1,8.7,9.7,10.9
				c2.6,2.2,7.8,3.9,9.7,3.9c1.8,0,3.9-0.3,3.9-0.3s-4.3,2.3-15,1.9c-4.5-0.2-7.4-1.3-9.2-2.6c2.1,3.4,4.1,8.3,1.9,12.8
				c-8.1,16.5,2.7,21.9,2.7,21.9s-9.6-1-15.1-5.8c0,0.1,0,0.3-0.1,0.4c-2.4,8.2-8.8,9.2-8.8,9.2s4.1-0.7,3.3-8.3
				c-0.2-2-2.3-2.8-5-4.2c-1,7.4-4.4,14.9,2.5,18c0,0-11.7-2.3-13.8-9.2c-0.4-1.3-0.6-2.5-0.8-3.6c-0.2,0.7-0.4,1.3-0.6,2
				c-1.7,8.8,5.1,17.4,5.1,17.4s-24.3-2.6-24.5-12.2c0-1.4-0.3-7.3-1-9.5c-0.7-2.2-2.2-13.2-2.2-13.2S169.7,184.2,171.2,183.1z"/>
		</g>
		<g>
			<g>
				<path fill="#DCC5A1" d="M120.9,196.9V338h-77c-1.3-0.5-1.9-0.8-1.9-0.8c0-75.7,47.1-81.3,47.1-81.3c4.7,0,7.7-6,9.7-15.2
					c0.3-1.4,0.6-2.8,0.8-4.4c0.4-2.6,0.8-5.3,1.1-8.2c0.2-1.7,0.3-3.5,0.5-5.2c0.7-8.7,0.9-18.1,0.9-27
					C102.1,195.9,112.5,196.9,120.9,196.9z"/>
				<path fill="#EDD9B4" d="M200,337.2c0,0-0.7,0.3-1.8,0.8h-77.3V196.9h0.2c8.4,0,18.8-1,18.8-1c0,8.9,0.2,18.2,0.9,26.8
					c0.2,1.7,0.3,3.4,0.5,5.1c0.3,3,0.6,5.8,1.1,8.4v0.1c0.2,1.2,0.4,2.3,0.6,3.3c2,9.7,5.1,16.3,10,16.3
					C152.9,255.8,200,261.5,200,337.2z"/>
			</g>
			<path opacity="0.7" fill="#BC9F82" d="M142.3,236.1L142.3,236.1c-1.9,3.1-8.4,11.6-21.3,11.6c-0.1,0-0.1,0-0.1,0
				c-12.3-0.1-19.4-8.9-21.2-11.5c0.4-2.6,0.8-5.3,1.1-8.2c0.2-1.7,0.3-3.5,0.5-5.2c6,1.5,12.5,2.4,19.4,2.5h0.2
				c7.1-0.1,13.7-1.1,19.9-2.7c0.2,1.7,0.3,3.4,0.5,5.1C141.5,230.7,141.9,233.5,142.3,236.1z"/>
		</g>
		<g>
			<g>
				<g>
					<g>
						<path fill="#CCAE8B" d="M121.1,35c-81.5,0-82,68-78.4,112.5c-5.6-10.6-22.1-7.3-20.8,9.3c1.3,16,24.7,24.3,24.3,22.4
							c6.7,36.6,45.1,57.8,74.8,57.8c0.2,0,0.4,0,0.6,0v-202C121.5,35.1,121.3,35,121.1,35z"/>
					</g>
					<path fill="#BC9F82" d="M27.1,149.9c4-6.4,10.2-3.6,11.8-2.2c1.6,1.5,2.9,3.6,1.9,7.4c-0.6,2.1-2.8,2.3-2.3,5.5
						c0.6,3.7,2.3,3.9,3.3,4.7c1,0.8,2.1,1.5,2.7,3c0.6,1.6,0.7,3.2,0.4,4.6c-0.6,2.6-4.4,0.5-7-0.6c-1.7-0.8-7.1-5.3-8.4-6.8
						C26,161.6,24.4,154.2,27.1,149.9z"/>
				</g>
				<g>
					<g>
						<path fill="#D9BF9F" d="M121.5,35c81.5,0,82,68,78.4,112.5c5.6-10.6,22.1-7.3,20.8,9.3c-1.3,16-24.7,24.3-24.4,22.4
							c-6.7,36.6-45.1,57.8-74.8,57.8c-0.2,0-0.4,0-0.6,0v-202C121.1,35.1,121.3,35,121.5,35z"/>
					</g>
					<path fill="#BC9F82" d="M215.4,149.9c-4-6.4-10.2-3.6-11.8-2.2c-1.6,1.5-2.9,3.6-1.9,7.4c0.6,2.1,2.8,2.3,2.3,5.5
						c-0.6,3.7-2.3,3.9-3.3,4.7c-0.9,0.8-2.1,1.5-2.7,3c-0.6,1.6-0.7,3.2-0.4,4.6c0.6,2.6,4.5,0.5,7-0.6c1.7-0.8,7.1-5.3,8.4-6.8
						C216.6,161.6,218.1,154.2,215.4,149.9z"/>
				</g>
				<g>
					<path fill="#DCC5A1" d="M120.4,54.2C93.5,54.2,73.9,62,62,77.3c-16.6,21.4-16,54.1-9.8,77.6c1.9,7.2,2.8,26.5,4.1,33.6
						c5.8,31.7,40.9,48.6,64.1,48.6c0.2,0,0.4,0,0.6,0V54.2C120.8,54.2,120.6,54.2,120.4,54.2z"/>
					<path fill="#EDD9B4" d="M178.6,77.4c-11.8-15.2-31.2-23-57.6-23.1v182.9c26.4-0.3,58-18.8,63.4-48.6c1.3-7.1,2.3-26.4,4.1-33.6
						C194.7,131.5,195.3,98.8,178.6,77.4z"/>
				</g>
			</g>
			<path fill="#13150E" d="M210.2,101.2c-0.5-1.2-1.1-2.3-1.7-3.3c-1.6-11.6-9.8-34.8-17.9-46.5c-8.4-12.1-29-22.9-55.4-26
				c-26.5-3.2-49.5,15.4-49.5,15.4s-4.1-6.1-7.6-7.9c-3.5-1.8-13.6,0.4-13.6,0.4s6.8,1.9,8.2,3.7c2.5,3.4,1.4,6.6,1.4,6.6
				s-8-3.4-11.5-3.5C56.2,39.8,49,47.9,49,47.9s6-4.2,11.7-4c1.9,0,7.1,2.5,7.1,2.5s-9.5,1-27.2,20.4
				c-13.4,14.6-13.4,33.9-13.4,33.9l11.2-6.4c0,0-2.9,3.4-4.3,6.9c-8.3,20.5,3.1,41.1,3.1,41.1s3.7,0.4,7.1,8.3
				c4.6,10.7,7.4,23.9,7.4,23.9h4c0,0-8.5-33-2.8-51c1.6-4.9,5.9-15.1,11.8-15.5c0,0,3.9-3.4,5.7-10.2C72,91,81.1,79.7,86,77.5
				c4.9-2.1,7.7,1.1,7.7,1.1s7.7-6.1,21.7-8.6c14-2.5,21.7,12.5,24.8,20.3c3.1,7.8,1.5,11.8,1.5,11.8s6-9.6,5.3-19.3
				c-0.2-3.1-0.9-5.5-1.6-7.3c1.8,0.9,9.8,3.1,11.4,23.7c0.8,9.8-8.1,16.4-8.1,16.4s19.7-8.1,15.6-33.2c4.2,4.5,8.5,10.9,9.7,15.3
				c1.7,6.8,16.5,22.6,17.5,25.7c5.7,18-2.8,51-2.8,51h4c0,0,2.8-13.2,7.4-23.9c3.4-7.9,7.1-8.3,7.1-8.3S218.5,121.7,210.2,101.2z
				 M143.4,71.8c-0.1-0.1-0.2-0.3-0.3-0.4L143.4,71.8L143.4,71.8z"/>
			<path fill="#EB5824" d="M221.1,118c-5.6-21.3-20.2-52.2-30.5-66.6c-2.4-3.4-5.1-5.9-6.8-7.4c1.1-1.1,2.1-2.5,2.2-4
				c0.5-4.2,2.5-12.9-3.6-9.9c-5.7,2.9,1.3,4.5-2.1,9.2c-3.5-4.8-14.7-14.7-50.3-27.9c-51.4-19-64.7-2.8-81.7,5.6
				c-17,8.5-17.7,16.9-15.6,22.4c2.1,5.5,4.3,22.7,7.8,27.3c3.5,4.6,19.1-1.7,49.5,25c30.4,26.7,92.7,39.6,111.1,64.5
				c18.4,24.9,26.9,16.7,26.9,16.7s2.1-4.9,4.2-10.6C234.5,156.7,228.9,147.5,221.1,118z"/>
		</g>
		<g>
			<path fill="#FDFBF8" d="M200.6,337.2c0,0-0.6,0.3-1.9,0.8H43.9c-1.3-0.5-1.9-0.8-1.9-0.8c0-2.3,0.1-4.5,0.1-6.7
				c0.2-5,0.6-9.6,1.3-13.9c0.5-3.7,1.1-7,1.9-10.3c0.3-1.4,0.6-2.8,1-4.3c0.5-1.9,1.1-3.7,1.7-5.5c0.5-1.5,1-2.8,1.6-4.2
				c1.6-3.9,3.3-7.5,5.2-10.6c3.5-5.9,7.4-10.4,11.4-13.9c3.3-3,6.5-5.2,9.5-6.9c0.1,0,0.2-0.1,0.2-0.1c0.1-0.1,0.1-0.1,0.1-0.1
				c0.4,0.9,2.5,3.4,6.3,7.1c3.7,3.6,9,8.3,15.7,13.9c0.4,0.3,0.9,0.8,1.4,1.1c14,11.3,30,11.3,43.9,0c0.5-0.4,1-0.8,1.4-1.1
				c6.8-5.6,12.1-10.3,15.8-13.9c3.8-3.7,5.9-6.2,6.3-7.1c0,0,0.1,0,0.1,0.1c0.1,0.1,0.2,0.1,0.3,0.1c3,1.7,6.3,3.9,9.6,6.9
				c3.9,3.5,7.8,8.1,11.3,13.9c1.9,3.1,3.7,6.7,5.2,10.6c0.5,1.4,1.1,2.7,1.6,4.2c0.6,1.8,1.2,3.6,1.7,5.5c0.4,1.4,0.7,2.8,1,4.3
				c0.7,3.2,1.3,6.6,1.8,10.3c0.6,4.3,1,9,1.2,13.9C200.6,332.7,200.6,334.9,200.6,337.2z"/>
			<g>
				<path fill="#CC6E28" d="M97.4,310.6c0,4.4-3.6,8-8,8c-4.4,0-8-3.6-8-8c0-4.4,3.6-8,8-8C93.8,302.6,97.4,306.2,97.4,310.6z"/>
				<path fill="#B3B635" d="M120.2,322.7c0,2.3-1.9,4.2-4.2,4.2c-2.3,0-4.2-1.9-4.2-4.2c0-2.3,1.9-4.2,4.2-4.2
					C118.3,318.5,120.2,320.4,120.2,322.7z"/>
				<path fill="#43606B" d="M156.8,313.2c0,5.5-4.5,10-10,10c-5.5,0-10-4.5-10-10c0-5.5,4.5-10,10-10
					C152.3,303.2,156.8,307.7,156.8,313.2z"/>
				<path fill="#B3B635" d="M181.9,322.7c0,1.6-1.3,2.9-2.9,2.9c-1.6,0-2.9-1.3-2.9-2.9c0-1.6,1.3-2.9,2.9-2.9
					C180.6,319.9,181.9,321.2,181.9,322.7z"/>
				<path fill="#866EA6" d="M170.4,290.2c0,1.7-1.4,3.1-3.1,3.1c-1.7,0-3.1-1.4-3.1-3.1c0-1.7,1.4-3.1,3.1-3.1
					C169,287.1,170.4,288.4,170.4,290.2z"/>
				<path fill="#B3B635" d="M78.7,285.3c0,2.2-1.8,4-4,4c-2.2,0-4-1.8-4-4c0-2.2,1.8-4,4-4C76.9,281.3,78.7,283.1,78.7,285.3z"/>
				<path fill="#B3B635" d="M66.3,318.5c0,2.9-2.4,5.3-5.3,5.3c-3,0-5.3-2.4-5.3-5.3s2.4-5.3,5.3-5.3
					C63.9,313.2,66.3,315.6,66.3,318.5z"/>
			</g>
		</g>
	</g>
	<g>
		<path fill="#D4A596" d="M142.7,199.5c0,0-7.5,4.5-16.7,4.5c-8.3,0-14.9-2.9-16.1-4.2c-0.1-0.1,0-0.2,0.1-0.3
			c1.4-0.2,7.9-1.1,16-1.1C135.2,198.5,142.7,199.5,142.7,199.5"/>
		<path fill="#D4A596" d="M130.7,195.9c-1,0-2,0.3-2.8,0.7c-1.2,0.7-2.7,0.7-3.9,0c-0.8-0.4-1.7-0.7-2.8-0.7
			c-2.2,0-9.3,2.7-11.4,3.5c-0.1,0.1-0.1,0.3,0,0.3c2.1,0.2,9,0.9,11.2,0.9c2.6,0,4.9,1,5-0.9c0.1,1.9,1.9,1.2,4.5,1.2
			c2.2,0,9.5-0.9,11.6-1.2c0.2,0,0.2-0.2,0-0.3C140.1,198.5,132.9,195.9,130.7,195.9"/>
	</g>
</g>
</svg>
