<?xml version="1.0" encoding="utf-8"?>
<!-- Generator: Adobe Illustrator 18.1.1, SVG Export Plug-In . SVG Version: 6.00 Build 0)  -->
<svg version="1.1" id="Camada_1" xmlns="http://www.w3.org/2000/svg" xmlns:xlink="http://www.w3.org/1999/xlink" x="0px" y="0px"
	 viewBox="0 0 264 345.2" enable-background="new 0 0 264 345.2" xml:space="preserve">
<g>
	<g>
		<path fill="#4E191B" d="M239.5,113.6c0,0,6,54-4.6,77.9c-10.7,24-28,52-45.5,60.5c-17.5,8.5-66,10.2-95.5,24.7
			c-29.6,14.5-47.6,20.9-46.4,33.4c1.3,12.6,11,17.7,11,17.7s-35.9-12-35.9-37.1c0-25.1,13.6-36.1,21.8-48.3
			c25.1-37.2,6-87.6,6-87.6S76.8,60,79.5,60.2c2.7,0.2,89-31.6,99.6-24.7C189.8,42.5,239.5,113.6,239.5,113.6z"/>
		<g>
			<g>
				<path fill="#DCC5A1" d="M149.6,186.1v152H66.7c-1.3-0.6-2-0.9-2-0.9c0-13.5,1.4-25,3.8-34.7c11.7-48.7,47-52.9,47-52.9h0.4
					c0.3-0.1,0.8-0.1,1.1-0.2c4.2-1.2,7-7.3,9-16.1c0.3-1.5,0.6-3.1,0.9-4.7c0.5-2.8,0.9-5.8,1.2-8.8c0.2-1.9,0.4-3.7,0.5-5.6
					c0.7-9.3,1-19.5,1-29.1C129.4,185,140.6,186.1,149.6,186.1z"/>
				<path fill="#EDD9B4" d="M234.8,337.2c0,0-0.8,0.3-2,0.9h-83.3v-152h0.2c9,0,20.2-1.1,20.2-1.1c0,9.6,0.2,19.6,1,28.9
					c0.2,1.9,0.3,3.7,0.5,5.5c0.3,3.2,0.7,6.2,1.2,9.1v0c0.2,1.3,0.4,2.4,0.6,3.6c1.7,8.5,4.3,14.8,8,16.9c0.3,0.1,0.6,0.3,0.9,0.3
					c0.6,0.2,1.2,0.4,1.9,0.4c0,0,0.6,0.1,1.6,0.3c5.4,1.2,23.1,6.5,35.7,27.9C229.1,290.8,234.8,309.8,234.8,337.2z"/>
			</g>
			<path opacity="0.7" fill="#BC9F82" d="M172.6,228.4L172.6,228.4c-2,3.3-9.1,12.5-23,12.5c-0.1,0-0.1,0-0.1,0
				c-13.2-0.1-20.9-9.6-22.9-12.4c0.5-2.8,0.9-5.7,1.2-8.8c0.2-1.8,0.3-3.7,0.5-5.6c6.4,1.6,13.4,2.6,20.9,2.7h0.2
				c7.7-0.1,14.8-1.2,21.4-3c0.2,1.8,0.3,3.7,0.5,5.5C171.8,222.6,172.2,225.6,172.6,228.4z"/>
		</g>
		<path fill="#5B5052" d="M241.6,298.9c0,0-24.1-47.3-57.6-49.3c-0.9-0.1,24.9,37.6-9.4,46.4c-8.5,2.1-16.9,2.9-24.8,2.6
			c0,0-0.1,0-0.1,0c0,0-0.1,0-0.1,0c-7.8,0.3-16.3-0.5-24.8-2.6c-34.4-8.8-8.6-46.4-9.4-46.4c-33.6,2-57.6,49.3-57.6,49.3l10.6,3.6
			l15,5c0,0-5.2,13.6-5.5,30.5h71.8h71.8c-0.3-16.9-5.5-30.5-5.5-30.5l15-5L241.6,298.9z"/>
		<g>
			<g>
				<g>
					<path fill="#CCAE8B" d="M149.5,22.8c-86.5-0.2-87,69.1-83.2,114.3c-5.9-10.6-23.5-6.7-22.1,10.3c1.4,16.3,26.2,23.6,25.8,21.8
						c7.1,36.8,47.9,57.3,79.4,60.2c0.2,0,0.5,0,0.6,0c0-68.9,0-137.8,0-206.7C149.9,22.8,149.7,22.8,149.5,22.8z"/>
				</g>
				<path fill="#BC9F82" d="M48.6,140.2c4.3-6.5,11-3.7,12.7-2.3c1.7,1.6,3.1,3.7,2.1,7.6c-0.6,2.2-3,2.4-2.5,5.7
					c0.7,3.7,2.5,4,3.5,4.8c1,0.8,2.3,1.5,3,3.1c0.6,1.6,0.7,3.2,0.4,4.7c-0.7,2.7-4.8,0.5-7.6-0.6c-1.8-0.8-7.6-5.4-9.1-7
					C47.4,152.2,45.7,144.6,48.6,140.2z"/>
				<g>
					<path fill="#D9BF9F" d="M149.9,22.8c86.5-0.2,87,69.1,83.2,114.3c6-10.6,23.5-6.7,22,10.3c-1.4,16.3-26.2,23.6-25.8,21.8
						c-7.1,36.8-47.9,57.3-79.4,60.2c-0.2,0-0.5,0-0.7,0c0-68.9,0-137.8,0-206.7C149.5,22.8,149.7,22.8,149.9,22.8z"/>
				</g>
				<path fill="#BC9F82" d="M251.4,140.2c-4.3-6.5-11-3.7-12.7-2.3c-1.7,1.6-3.1,3.7-2,7.6c0.6,2.2,3,2.4,2.4,5.7
					c-0.7,3.7-2.5,4-3.5,4.8c-1,0.8-2.3,1.5-3,3.1c-0.6,1.6-0.7,3.2-0.4,4.7c0.7,2.7,4.8,0.5,7.6-0.6c1.8-0.8,7.6-5.4,9.1-7
					C252.6,152.2,254.3,144.6,251.4,140.2z"/>
				<g>
					<path fill="#DCC5A1" d="M149,42.4c-28.9,0-50,8-62.9,23.6C68.3,87.9,69,121.3,75.6,145.3c2,7.3,3,27.1,4.4,34.4
						c6.2,32.5,44.1,49.7,69,49.7c0.2,0,0.5,0,0.7,0v-187C149.5,42.4,149.3,42.4,149,42.4z"/>
					<path fill="#EDD9B4" d="M211.8,66c-12.7-15.6-33.6-23.5-62-23.6v187c28.5-0.3,62.5-19.2,68.3-49.7c1.4-7.3,2.4-27,4.4-34.4
						C229,121.4,229.7,88,211.8,66z"/>
				</g>
			</g>
			<g>
				<path fill="none" stroke="#ECD118" stroke-width="0.7467" stroke-miterlimit="10" d="M72.8,173.8c0,3.3-2.7,6.1-6.1,6.1
					c-3.4,0-6.1-2.7-6.1-6.1c0-3.4,2.7-6,6.1-6C70,167.8,72.8,170.5,72.8,173.8z"/>
				<path fill="none" stroke="#ECD118" stroke-width="0.7467" stroke-miterlimit="10" d="M234.8,173.8c0,3.3-2.7,6.1-6.1,6.1
					c-3.4,0-6.1-2.7-6.1-6.1c0-3.4,2.7-6,6.1-6C232.1,167.8,234.8,170.5,234.8,173.8z"/>
			</g>
			<g>
				<path fill="#82191B" d="M59.7,129.4c0,0,0.7,2.1,1.7,5.9c1,3.8,2.4,9.2,3.3,15.9c0.6,3.3,0.9,7,1.2,10.9c0.2,3.9,0.4,8,0.1,12.4
					c-0.2,4.3-0.5,8.8-1.4,13.3c-0.3,2.3-0.9,4.5-1.5,6.8l-0.9,3.4l-0.2,0.8L62,199l-0.2,0.5l-0.1,0.4l-0.6,1.6l-2.5,6.2
					c-0.8,2-2.2,4.2-3.3,6.3c-2.1,4.4-5.2,7.7-7.8,11.3c-2.9,3.3-5.7,6.4-8.8,9c-3,2.6-5.9,5-8.8,6.8c-2.8,2-5.5,3.6-7.8,4.9
					c-2.4,1.4-4.5,2.5-6.3,3.4c-3.6,1.7-5.6,2.6-5.6,2.6s1.5-1.7,4.3-4.5c2.7-2.8,6.7-6.7,11.1-11.5c2.3-2.3,4.5-5.1,6.9-7.8
					c2.5-2.7,4.5-6,6.9-9.1c2-3.3,4.3-6.7,5.9-10.3c0.9-1.8,1.8-3.3,2.6-5.4l2.4-6.2l0.6-1.5l0.2-0.4l0-0.1c-0.2,0.6,0,0.1-0.1,0.2
					l0.1-0.2l0.2-0.8l0.8-3c0.5-2,1.2-3.9,1.6-6c0.5-2,0.9-4,1.4-6c0.3-2,0.7-4,1-6c0.5-3.9,1-7.8,1.4-11.5
					c0.2-3.7,0.7-7.2,0.8-10.5c0.4-6.6,0.8-12.1,1-16C59.4,131.6,59.7,129.4,59.7,129.4z"/>
				<path fill="#82191B" d="M63.4,173.8c0,0,0.9,2.3,2,6.2c0.5,2,1.5,4.3,1.6,7.4c0.2,2.9,0.8,6.6,0.4,10.3c-0.5,3.6-0.4,7.9-1.8,12
					c-0.6,2.1-1.2,4.2-1.9,6.4c-0.8,2.1-1.8,4.2-2.7,6.3c-1.8,4.4-4.4,8.3-6.9,12.4c-2.6,3.9-5.5,7.9-8.4,11.5
					c-3,3.6-6,7.3-8.9,10.6c-2.9,3.4-5.7,6.5-8.2,9.6c-5,6.2-8.5,11.9-9.5,17.4c-0.6,2.8-0.4,5.5-0.2,8c0.3,1.2,0.6,2.4,0.8,3.6
					c0.4,1.1,0.7,2.1,1,3.1c0.6,1.9,1.3,3.3,1.7,4.4c0.4,1.1,0.6,1.6,0.6,1.6s-0.5-0.4-1.4-1c-0.8-0.7-2.4-1.5-3.9-3.1
					c-0.8-0.8-1.6-1.6-2.5-2.6c-0.8-1-1.6-2.3-2.6-3.6c-0.7-1.4-1.6-2.9-2.3-4.6c-0.5-1.7-1.2-3.7-1.3-5.7c-0.6-4.2-0.3-8.8,1-13.2
					c1.3-4.5,3.2-8.8,5.6-12.8c2.4-4,5-7.9,7.9-11.6c2.8-3.7,5.6-7.2,8.4-10.7c2.9-3.5,5.5-7,8.2-10.4c2.3-3.5,5.2-6.7,7.2-10.1
					c1.1-1.7,2.2-3.3,3.2-4.9c0.9-1.7,1.8-3.3,2.6-4.9c1-1.6,1.7-3.2,2.3-4.8c0.7-1.6,1.3-3.1,2-4.6c1.2-3,1.8-5.8,2.7-8.4
					c0.9-2.5,1.2-5.1,1.6-7.1C62.7,176.2,63.4,173.8,63.4,173.8z"/>
				<path fill="#82191B" d="M236.6,138.2c0,0,0.3,0.5,0.8,1.4c0.5,0.9,1.4,2.2,2,4.2c0.8,1.9,1.4,4.4,1.6,7.3
					c0.3,2.9,0.2,6.3-0.6,9.8c-1.3,7.1-4.8,14.8-9.3,22.1c-2.2,3.7-4.6,7.4-7,11c-2.4,3.6-4.8,7.3-7.2,11c-2.5,3.7-4.7,7.3-7,10.9
					c-2,3.7-4.5,7.1-6.2,10.7c-0.9,1.8-1.9,3.5-2.7,5.2c-0.8,1.7-1.6,3.5-2.3,5.1c-1.7,3.3-2.4,6.6-3.7,9.7c-1.1,3-1.5,6-2.3,8.5
					c-0.8,2.6-0.9,4.9-1.2,6.8c-0.6,3.8-1,6.1-1,6.1s-0.6-2.2-1.3-6.1c-0.3-2-1-4.4-0.9-7.2c0-2.8-0.4-6.1,0.1-9.5
					c0.5-3.4,0.7-7.3,2-11.1c0.5-1.9,1.1-3.9,1.7-6c0.6-2,1.6-3.9,2.4-6c3.2-8.1,7.9-16.1,12.8-23.7c2.4-3.6,5-7.5,7.7-11
					c2.6-3.5,5.2-6.9,7.7-10.2c4.8-6.5,9-12.7,11.4-18.4c1.2-2.9,2.1-5.6,2.5-8.1c0.4-2.5,0.7-4.8,0.6-6.6c0-1.9-0.2-3.5-0.4-4.5
					C236.6,138.8,236.6,138.2,236.6,138.2z"/>
				<path fill="#4E191B" d="M57.6,78.5c-0.2-16.9,7.2-22.3,11.8-30.6c4.7-8.2,15.1-18,19.7-22.1c4.6-4,9.7-9.2,9.7-9.2
					s7.9-6,18.6-8.3c10.8-2.3,14,0.4,24,4.2c1.3,0.5,2.4,1,3.4,1.5c6.2-5.7,6.1-6.2,13-8.9c12.9-5.1,20.4,2.4,20.4,2.4l-7.5,1.1
					c0,0,12.2-1.6,22.2,5c10,6.7,13.5,12.1,13.5,12.1s-14.5-3.3-5.1,0c9.3,3.3,17.6,8.4,25.1,15c7.5,6.7,15.4,16.1,19,25.9
					c3.6,9.8-1.8-5.1-9-10.6c-7.2-5.5-12.9-7.4-12.9-7.4s9.8,9.6,18.3,29.4c5.2,12.1,10.5,28,8.8,54c-2.7,41.5-22.5,56.6-22.5,56.6
					s4.6-4.8,6.4-11.2c1.9-6.5,1-14.5,0.8-13.5c-0.4,2-19.9,30.6-19.9,30.6s15.6-22.3,9.8-51.1c-2.1-10.4-7.9-16.6-10.4-19.8
					c-0.8-1-1.4-2-2.1-3c-9.5,12-27.3,17.1-27.3,17.1s11.5-12.3,13-21.3c1.4-9,0.8-27.7-9.2-38.3c-1.4-1.4-3-2.9-4.7-4.4
					c4.6,10.4,4.3,20-0.1,29.9c-2.2,4.9-6.2,8.8-10,11.5c-10.2,8.7-25.6,14.2-43,14.2c-8.4,0-16.3-1.3-23.4-3.6v0c0,0,0,0-0.1,0
					c-1.2-0.4-2.4-0.8-3.5-1.3c-12.3-3.9-51.2-12.2-32.7,47.7l0.2,0.9l0,0c2.7,13.4,10.3,29.9,10.3,29.9s-9.7-17.1-17.6-31.2
					c-7.9-14.1-8.9-27.2-8.1-45.2c0.1-3.7,0.4-6.9,0.8-9.9c-0.9,1.2-1.8,2.2-2.7,3c-6.5,5.5-11.6,5.4-11.6,5.4S58.1,116.7,57.6,78.5
					z"/>
			</g>
		</g>
	</g>
	<g>
		<path fill="#DC2532" d="M167.5,201.2c0,0-7.7,8.3-17.3,8.3c-9.6,0-16.9-8.1-16.9-8.1s7.3-1.2,16.9-1.2
			C159.7,200.1,167.5,201.2,167.5,201.2"/>
		<path fill="#DC2532" d="M155,197.4c-2.7,0-4.8,1.7-4.9,3.8c0-2.1-2.2-3.8-4.9-3.8c-2.7,0-12.4,3.8-12.4,3.8s9.5,1,12.2,1
			c2.7,0,5.1,1.1,5.1-1c0.1,2,2,1.2,4.7,1.2c2.7,0,12.6-1.3,12.6-1.3S157.8,197.4,155,197.4"/>
	</g>
</g>
</svg>
