<?xml version="1.0" encoding="utf-8"?>
<!-- Generator: Adobe Illustrator 18.1.1, SVG Export Plug-In . SVG Version: 6.00 Build 0)  -->
<svg version="1.1" id="Camada_1" xmlns="http://www.w3.org/2000/svg" xmlns:xlink="http://www.w3.org/1999/xlink" x="0px" y="0px"
	 viewBox="0 0 250.3 339.9" enable-background="new 0 0 250.3 339.9" xml:space="preserve">
<g>
	<g>
		<g>
			<path fill="#DCC5A1" d="M125,192v146.8H44.9c-1.3-0.6-2-0.8-2-0.8c0-78.8,49-84.6,49-84.6c0.1,0,0.1,0,0.1,0
				c4.9-0.1,7.9-6.3,10-15.8c0.3-1.5,0.6-3,0.8-4.6c0.5-2.7,0.8-5.6,1.1-8.5c0.2-1.8,0.3-3.6,0.5-5.4c0.7-9,1-18.8,1-28.1
				C105.5,190.9,116.3,192,125,192z"/>
			<path fill="#EDD9B4" d="M207.4,337.6v0.4c0,0-0.4,0.2-1.1,0.4c0,0,0,0-0.1,0c-0.2,0.1-0.5,0.2-0.8,0.4H125V192h0.2
				c8.7,0,19.6-1.1,19.6-1.1c0,9.3,0.2,18.9,0.9,27.9c0.2,1.8,0.4,3.6,0.5,5.3c0.3,3.1,0.7,6,1.1,8.7v0.1c0.2,1.2,0.4,2.3,0.6,3.5
				c2.1,10.1,5.3,17,10.4,17c0,0,7.2,0.8,16.1,6.4C188.7,268.5,207.2,289.3,207.4,337.6z"/>
		</g>
		<path opacity="0.7" fill="#BC9F82" d="M147.3,232.8L147.3,232.8c-2,3.2-8.8,12.1-22.2,12.1c-0.1,0-0.1,0-0.1,0
			c-12.7-0.1-20.2-9.3-22.1-12c0.5-2.7,0.8-5.6,1.1-8.5c0.2-1.8,0.3-3.6,0.5-5.4c6.2,1.6,13,2.5,20.2,2.6h0.2
			c7.4-0.1,14.3-1.1,20.7-2.8c0.2,1.8,0.3,3.6,0.5,5.3C146.5,227.2,146.8,230.1,147.3,232.8z"/>
	</g>
	<g>
		<g>
			<g>
				<path fill="#CCAE8B" d="M124.9,23.6c-84.8,0-85.3,70.8-81.6,117.1c-5.8-11-23-7.6-21.6,9.7c1.4,16.7,25.7,25.3,25.3,23.3
					c7,38.1,46.9,60.1,77.8,60.1c0.2,0,0.4,0,0.6,0V23.6C125.4,23.6,125.1,23.6,124.9,23.6z"/>
			</g>
			<path fill="#BC9F82" d="M27.2,143.1c4.2-6.7,10.7-3.8,12.2-2.3c1.7,1.6,3,3.7,2,7.7c-0.6,2.2-2.9,2.4-2.4,5.8
				c0.6,3.8,2.4,4,3.4,4.9c1,0.9,2.2,1.5,2.9,3.1c0.6,1.6,0.7,3.3,0.4,4.8c-0.6,2.7-4.6,0.6-7.3-0.7c-1.7-0.8-7.4-5.5-8.8-7.1
				C26,155.2,24.4,147.5,27.2,143.1z"/>
		</g>
		<g>
			<g>
				<path fill="#D9BF9F" d="M125.3,23.6c84.9,0,85.3,70.8,81.6,117.1c5.8-11,23-7.6,21.6,9.7c-1.4,16.7-25.7,25.3-25.4,23.3
					c-7,38.1-46.9,60.1-77.8,60.1c-0.2,0-0.4,0-0.6,0V23.6C124.9,23.6,125.1,23.6,125.3,23.6z"/>
			</g>
			<path fill="#BC9F82" d="M223.1,143.1c-4.2-6.7-10.7-3.8-12.2-2.3c-1.7,1.6-3,3.7-2,7.7c0.6,2.2,2.9,2.4,2.4,5.8
				c-0.6,3.8-2.4,4-3.4,4.9c-1,0.9-2.2,1.5-2.9,3.1c-0.6,1.6-0.7,3.3-0.4,4.8c0.6,2.7,4.6,0.6,7.3-0.7c1.8-0.8,7.4-5.5,8.8-7.1
				C224.3,155.2,225.9,147.5,223.1,143.1z"/>
		</g>
		<g>
			<path fill="#DCC5A1" d="M124.2,43.5c-27.9,0-48.4,8.1-60.7,24c-17.3,22.3-16.6,56.3-10.2,80.7c1.9,7.5,2.9,27.6,4.3,35
				c6,33,42.6,50.6,66.7,50.6c0.2,0,0.5,0,0.7,0V43.5C124.6,43.5,124.4,43.5,124.2,43.5z"/>
			<path fill="#EDD9B4" d="M184.8,67.6c-12.3-15.9-32.5-23.9-59.9-24v190.3c27.5-0.3,60.4-19.6,66-50.6c1.3-7.4,2.3-27.5,4.3-35
				C201.5,123.9,202.1,89.9,184.8,67.6z"/>
		</g>
	</g>
	<g>
		<path fill="#060706" d="M125.8,199.6c-0.9,11.2-22.1,10.2-33.2,10.2c5.5-5,20-16.4,31.1-16.4C123.7,193.4,126,198,125.8,199.6z"/>
		<path fill="#060706" d="M124.3,199.6c0.9,11.2,22.2,10.2,33.2,10.2c-5.5-5-20-16.4-31.1-16.4C126.4,193.4,124.1,198,124.3,199.6z"
			/>
		<path fill="#060706" d="M202.4,174.5c-3.1,5.3-11.2,6.3-17.4,13.9c-6.1,7.5-34.5,20.2-34.5,20.2s-0.6,11.1-17.5,11.1
			c-3.1,0-5.3-4.7-7.8-4.6c0,0,0,0-0.1,0c0,0,0,0-0.1,0c-2.5-0.1-4.7,4.6-7.8,4.6c-17-0.1-17.5-11.1-17.5-11.1s-28.4-12.7-34.5-20.2
			c-6.2-7.5-14.2-8.5-17.4-13.9c-2.4-4,4,19.3,6.3,24.3c2.2,5,7,21.7,12.7,30.4c5.6,8.7,8.2,9.1,10.2,11.2c2.1,2.1,0-10,0-10
			s7.7,12.1,10.8,15c3.1,2.9,21.6,14.2,33.9,17.9c0.9,0.3,1.8,0.5,2.7,0.7v0.2c0.1,0,0.3-0.1,0.4-0.1c0.1,0,0.2,0.1,0.3,0.1v0
			c0,0,0.1,0,0.1,0c0,0,0.1,0,0.1,0v0c0.1,0,0.2,0,0.3-0.1c0.1,0,0.3,0.1,0.4,0.1v-0.2c0.9-0.2,1.7-0.4,2.6-0.7
			c12.3-3.7,30.8-15,33.9-17.9c3.1-2.9,10.8-15,10.8-15s-2.1,12.1,0,10c2-2.1,4.6-2.5,10.3-11.2c5.7-8.8,10.4-25.4,12.7-30.4
			C198.4,193.8,204.8,170.5,202.4,174.5z"/>
	</g>
	<path fill="#060706" d="M195.4,30c-20.6-14.7-51.5-30.1-70.2-28.2C79.1-2.8,65.5,19.1,54.9,26.7c-33.6,24-22.3,110-22.3,110
		s5.4-1.2,8.5,1.8c4.3,4.2,6.8,9,8,14.1c1.2,5.1,6,7.3,6,7.3s-8-34.2,0.2-49.5c3.8-7.1,7.3-14.8,15.4-22.3
		c-0.1,6.4,1.8,11.7,3.2,15.2c5.2,12.8,26.4,20.5,26.4,20.5s-15.6-8.8-9.4-19.5c3.7-6.5,25.5-12.3,38.2-13.4
		c18.5-1.5,27.2-8,30.8-14.7c3.9,1.2,7.4,2.6,10.2,4.4c15.4,9.9,19.8,20.2,24.9,29.7c8.2,15.2,0.2,49.5,0.2,49.5s4.8-2.3,6-7.3
		c1.2-5.1,3.7-9.9,8-14.1c3.1-3,8.5-1.8,8.5-1.8S229,54,195.4,30z"/>
	<path fill="#3D2C83" d="M206.4,134.3c-0.4-0.9-9.2-2.2-20.7-3.2c-9.7-0.9-25.2-0.3-31.3,0.5c-2.5,0.3-7.1,1.2-11.6,2.4
		c-5,1.3-10,3.1-12.1,3.5c-2,0.4-3.6,0.6-5.2,0.5v0c-0.1,0-0.3,0-0.4,0c-0.1,0-0.2,0-0.4,0v0c-1.7,0-3.2-0.1-5.2-0.5
		c-2.1-0.4-7-2.2-12.1-3.5c-4.5-1.2-9.1-2-11.6-2.4c-6.1-0.8-21.6-1.4-31.3-0.5c-11.5,1-20.2,2.3-20.7,3.2c-0.3,0.6-1,8.9-0.1,9.8
		c0.9,0.9,4.1,2.7,4.9,5.6c0.8,2.9,4,24,11.1,29.8c11.6,9.5,50.9,9.9,57.6-24.7c0.9-4.7,2.2-7.5,4.3-8.3c0.9-0.3,2.1-0.5,3.4-0.5
		c1.3,0,2.5,0.2,3.4,0.5c2.1,0.8,3.4,3.5,4.3,8.3c6.8,34.6,46,34.2,57.6,24.7c7.1-5.8,10.3-26.9,11-29.8c0.8-2.9,4-4.7,4.9-5.6
		C207.4,143.2,206.7,134.9,206.4,134.3z M111.3,157.9c-6.1,27.1-35.7,24-42.8,21.8c-3.1-0.9-12.3-4.5-13.8-26.5
		c-1-15.4,6.4-16.3,16.9-17.6c8.5-1.1,16.1-0.6,21.2,0c5.1,0.6,17.1,3.1,18.3,7.3C112.3,147.2,112.6,152,111.3,157.9z M195.6,153.2
		c-1.5,22.1-10.6,25.6-13.8,26.5c-7.2,2.1-36.7,5.3-42.8-21.8c-1.3-5.9-1-10.7,0.2-14.9c1.2-4.2,13.1-6.7,18.3-7.3
		c5.1-0.6,12.7-1.1,21.2,0C189.2,136.9,196.6,137.9,195.6,153.2z"/>
	<g>
		<path fill="#F8F6E0" d="M207.4,337.1c0,0-0.7,0.3-1.9,0.9H44.8c-1.3-0.6-2-0.9-2-0.9c0-60.2,28.5-77.9,42.1-83
			c8.8,9.7,26.3,23.1,39.8,23.8h0.3h0.1h0.1c0.1,0,0.2,0.1,0.3,0c13.6-0.7,31-14.1,39.9-23.8C178.8,259.1,207.4,276.8,207.4,337.1"
			/>
		<path fill="#223727" d="M77.3,257.7c10.5,11.5,31.2,27.4,47.3,28.2h0.3h0.1h0.1c0.1,0,0.2,0.1,0.3,0c16.1-0.8,36.8-16.7,47.3-28.2
			c-2.8-1.6-5.4-2.8-7.5-3.6c-8.8,9.7-26.3,23.1-39.9,23.8c-0.1,0.1-0.2,0-0.3,0h-0.1h0h-0.3c-13.5-0.7-31-14.1-39.8-23.8
			C82.6,255,80,256.2,77.3,257.7"/>
	</g>
</g>
</svg>
